<svg width="32" height="32" viewBox="0 0 32 32" fill="none" xmlns="http://www.w3.org/2000/svg">
	<path
		d="M16.0002 28.4333C15.6891 28.4333 15.3779 28.3777 15.0668 28.2666C14.7557 28.1555 14.4779 27.9888 14.2335 27.7666C12.7891 26.4333 11.5113 25.1333 10.4002 23.8666C9.28905 22.6 8.3615 21.3724 7.6175 20.184C6.8735 18.9955 6.30683 17.8511 5.9175 16.7506C5.52816 15.6502 5.3335 14.6 5.3335 13.6C5.3335 10.2666 6.40594 7.61107 8.55083 5.63329C10.6957 3.65551 13.1788 2.66663 16.0002 2.66663C18.8215 2.66663 21.3051 3.65551 23.4508 5.63329C25.5966 7.61107 26.6686 10.2666 26.6668 13.6C26.6668 14.6 26.4726 15.6502 26.0842 16.7506C25.6957 17.8511 25.1291 18.9955 24.3842 20.184C23.6393 21.3724 22.7113 22.6 21.6002 23.8666C20.4891 25.1333 19.2113 26.4333 17.7668 27.7666C17.5224 27.9888 17.2446 28.1555 16.9335 28.2666C16.6224 28.3777 16.3113 28.4333 16.0002 28.4333ZM16.0002 16C16.7335 16 17.3615 15.7391 17.8842 15.2173C18.4068 14.6955 18.6677 14.0675 18.6668 13.3333C18.6659 12.5991 18.4051 11.9715 17.8842 11.4506C17.3633 10.9297 16.7353 10.6684 16.0002 10.6666C15.2651 10.6648 14.6375 10.9262 14.1175 11.4506C13.5975 11.9751 13.3362 12.6026 13.3335 13.3333C13.3308 14.064 13.5922 14.692 14.1175 15.2173C14.6428 15.7426 15.2704 16.0035 16.0002 16Z"
		fill="#2F2E30" />
</svg>
